inDegrees=yes
name=ik_example_filtered_mov
DataType=double
version=3
OpenSimVersion=4.5
endheader
time	pelvis_tilt	pelvis_list	pelvis_rotation	pelvis_tx	pelvis_ty	pelvis_tz	hip_flexion_r	hip_adduction_r	hip_rotation_r	knee_angle_r	knee_angle_r_beta	ankle_angle_r	subtalar_angle_r	mtp_angle_r	hip_flexion_l	hip_adduction_l	hip_rotation_l	knee_angle_l	knee_angle_l_beta	ankle_angle_l	subtalar_angle_l	mtp_angle_l	lumbar_extension	lumbar_bending	lumbar_rotation	arm_flex_r	arm_add_r	arm_rot_r	elbow_flex_r	pro_sup_r	wrist_flex_r	wrist_dev_r	arm_flex_l	arm_add_l	arm_rot_l	elbow_flex_l	pro_sup_l	wrist_flex_l	wrist_dev_l
10.78552389144897	-7.827481034603085e-14	1.000556594705557e-17	8.770787965600545e-28	5.889320055112887e-20	0.93	-1.722980881235543e-19	43.22818316260605	-1.753808945198319	8.273424755927651	38.79996472863217	0.6771871341722995	-4.999791095356653	2.015252043058205e-23	4.009369314046335e-24	6.251920022730054e-29	-4.963507548433164e-24	1.886650071383807e-29	4.999637541212572e-16	8.726013653137206e-18	-4.791643695364047e-18	5.063515789281863e-23	5.76641193477365e-24	-3.05267420614367e-22	2.824900030752102e-30	-2.242016974325507e-20	-3.963219429843162e-25	3.107720061700088e-19	3.300973722237836e-18	4.999648472235193e-16	4.998887100419332e-16	5.819921986648004e-20	7.267810824351465e-18	-1.137766228013661e-17	-1.560212174280602e-22	2.419312033516561e-18	4.999365963378484e-16	4.999544349389741e-16	1.469577280778295e-19	5.98115131804582e-18
10.79250192642212	-7.827481034603533e-14	2.132608106762356e-17	3.105003666594455e-26	1.714425798219728e-19	0.93	5.872384097210816e-20	43.05933783864983	-1.769848858819274	8.239797773392059	38.79780767190799	0.6771494864303103	-4.999791216889657	-2.559149128743595e-20	8.576827592091401e-19	-6.074714012254447e-28	-4.592312034097197e-17	8.187570933231964e-33	5.275888261929464e-16	9.208162118544926e-18	-5.135537584511118e-17	-4.155039672896755e-20	8.011327572919512e-20	-7.441397722877921e-18	1.224006820036261e-33	5.568558093125857e-18	-3.686461487559722e-26	-1.72419292977914e-17	-2.414265089214597e-17	5.27588798850415e-16	5.275892934716729e-16	3.42424478953479e-17	6.909376115560017e-18	5.798642731562981e-18	3.167792583241851e-19	2.576803260219056e-18	5.27588799230805e-16	5.275984318979393e-16	9.724299521450872e-18	8.504473719513098e-17
10.80946969985962	-7.827481034544239e-14	-4.676424348599932e-24	1.930336190736483e-23	-5.910498192174413e-16	0.9300000000000008	-2.683139064604099e-15	42.86359442308378	-1.786883308989069	8.20650562229066	38.71331504341786	0.6756748118694932	-4.999791537973381	5.646413192381136e-13	-1.003775879854925e-16	-9.295590177224611e-15	-6.251316204403868e-15	-2.457532689692554e-12	8.788989106926822e-16	8.050374233883548e-15	-3.244001752603658e-14	-1.180317227254932e-14	-1.673094553424388e-15	9.798577337457254e-13	9.667944691090442e-13	-4.720744879806074e-13	6.630008968369088e-13	1.007855650996783e-12	1.514333986234325e-12	8.796235568290475e-16	8.796078874621356e-16	-8.438163542807736e-21	6.675486378183204e-18	-1.456060471663235e-12	-4.790634598589689e-13	-2.624769854556294e-13	8.796552415187366e-16	8.795910132862506e-16	-3.459548883352796e-22	2.613636484280065e-17
10.81495404243469	-7.827481034603108e-14	0	0	0	0.93	0	42.72471252224285	-1.799031618382645	8.181782807530075	38.72262314313822	0.6758372688567175	-4.999791627472074	0	0	0	0	0	0	6.307719747682539e-41	0	0	0	0	0	0	0	0	0	0	0	0	0	0	0	0	0	0	0	0
10.82255363464355	-7.827481034603108e-14	0	0	0	0.93	0	42.5801088257828	-1.812141020859214	8.153467983129767	38.70377816746853	0.6755083619838232	-4.999791743822494	0	0	0	0	0	0	0	0	0	0	0	0	0	0	0	0	0	0	0	0	0	0	0	0	0	0	0
10.83103060722351	-7.827481034603159e-14	-1.865922917801594e-18	3.417531823618642e-28	8.943816712553726e-21	0.93	-1.851964386193899e-19	42.44389132360173	-1.824480755410697	8.127653814039986	38.6756380077455	0.6750172235446191	-4.999791864304539	-3.775055382087573e-22	8.123541063281557e-22	1.666766882158237e-30	-1.029825348922538e-17	0	4.746371689649537e-16	8.283981361964423e-18	-1.421272051074187e-18	1.606943433326923e-21	-3.135857794393214e-22	1.750224109352864e-18	0	4.430132543714095e-19	3.912044749149802e-25	-1.054473773124915e-19	2.544493133728291e-18	4.746371416705288e-16	4.746420905849194e-16	-1.154689056637064e-18	-2.410961166013243e-18	2.278508644216518e-19	4.298154550342075e-22	-1.924395593866842e-18	4.746332683170095e-16	4.746370341732028e-16	7.099973515276706e-19	-6.988773354251157e-18
10.8376145362854	-7.82748103490243e-14	7.477031401295247e-19	-2.14950184055729e-25	2.990418060400475e-20	0.93	1.086244015623932e-20	42.31921328084346	-1.835891472213228	8.104420671809034	38.64880032507302	0.6745488176183749	-4.999791975382013	-2.53717975446812e-17	-2.082770402780763e-17	5.214555830470314e-34	-1.314007896248725e-24	7.518067973224163e-27	4.088187935150931e-16	7.135281716276743e-18	-2.263854763182475e-15	7.464386932256901e-15	1.767490738561007e-17	-9.115338188224758e-15	1.038629122798947e-14	4.512103029548305e-14	2.647769259292927e-16	-1.896695689535881e-16	-1.686719279935136e-15	4.088249500793294e-16	4.088268950877665e-16	9.626628834122635e-19	-2.387215500347669e-17	-1.313682139908863e-15	-3.147783978004136e-16	-6.377028980965714e-16	4.088268427374449e-16	4.088317469834681e-16	2.455098438052324e-18	2.707133223076083e-17
10.85457134246826	-7.827481034603108e-14	0	0	0	0.93	0	42.20390561926284	-1.846879684482119	8.082297221606799	38.62256170660283	0.6740908673348995	-4.999792079970418	0	0	0	0	0	2.104714535737113e-38	0	0	0	0	0	0	0	0	0	0	0	0	0	0	0	0	0	0	0	0	0
10.86068487167358	-7.827481034651042e-14	-2.098032026513636e-16	6.658527041407733e-25	-4.852207572664411e-19	0.93	2.449394569829396e-19	42.09696675115384	-1.857553792632191	8.061242880017328	38.59614201984127	0.673629756813566	-4.999792180758464	-4.702726309564949e-16	-5.648902477678035e-18	-2.920855077725631e-29	-8.507294120455516e-17	0	3.09087757218578e-16	5.31867266377151e-18	3.031468392192688e-17	-3.876998378045475e-16	3.173576655258379e-17	7.132555328133884e-26	-8.365582804164981e-25	3.900452206142267e-14	-3.567537299128897e-22	3.38651997945728e-17	-3.348409904411579e-16	3.090882743683273e-16	3.090873522339454e-16	1.797944508998087e-18	1.847451599968411e-19	3.869345963442617e-17	1.970763730771546e-16	1.398691933983372e-16	3.090865995093385e-16	3.090799487870886e-16	-1.249689047136714e-18	2.335612340041345e-17
10.86628890037537	-7.827481034603108e-14	0	0	0	0.93	0	41.99784445139928	-1.86807304195974	8.041036303932989	38.56940375847839	0.6731630861165238	-4.999792281207567	0	0	0	0	0	0	1.702512769362456e-41	0	0	0	0	0	0	0	0	0	0	7.954918486561602e-39	0	0	0	0	0	0	7.954918486561602e-39	0	0
10.88923835754395	-7.827481034959196e-14	2.621730226598362e-17	-1.277630260294889e-25	-3.88614951639913e-18	0.93	-5.89142645245575e-18	41.90527303263037	-1.87828892029304	8.020970755576421	38.54080742642252	0.6726639859681549	-4.999792371447415	-2.789963991504929e-16	4.204570931621768e-16	-4.14207389587527e-29	1.109097244204927e-21	0	2.159751439225632e-16	3.769289739687421e-18	5.331198654595619e-17	-1.451783804442053e-17	1.282862457580751e-17	1.486661088350319e-21	2.606667689678019e-34	1.29400631047412e-24	-9.082203569058819e-23	1.843225089221895e-18	-2.084283287782206e-17	2.159750116871863e-16	2.159987411891141e-16	1.344879491402072e-21	8.568150225987211e-20	1.958707387424778e-17	-6.583430353173707e-17	-3.392485519309356e-17	2.160679955153606e-16	2.159732454798945e-16	9.634410975395576e-20	-1.85987896165352e-20
10.89472341537476	-7.827481034603117e-14	0	0	0	0.93	0	41.82098518374857	-1.888835033625909	8.002835452847874	38.51426650721932	0.6722007595415534	-4.999792461954866	0	0	0	0	0	0	0	0	0	0	0	0	0	0	0	0	0	0	0	0	0	0	0	0	0	0	0
10.90070581436157	-7.827481034603445e-14	-9.703930024109998e-18	-6.816575069649541e-26	6.984949678977653e-19	0.93	-2.618726252582793e-19	41.74293718692219	-1.899638183143159	7.984505486861181	38.48764180696926	0.6717360708598336	-4.999792556880927	-3.72388742534851e-16	3.197051307355223e-17	-1.748330396267886e-29	-4.596721732948463e-20	0	1.544943638635824e-16	2.695988943269008e-18	-5.895130267430568e-17	-4.064221228030152e-17	-5.900861298654055e-17	-1.859182606891738e-18	-6.516669224211086e-35	-8.648876972814519e-29	1.743514174748788e-19	1.562461255119509e-19	-1.889642501364961e-16	1.544943375739083e-16	1.5453913909511e-16	9.831741901923001e-18	-3.025125054693186e-15	9.090481558318028e-17	1.327945257204569e-16	-2.175520289426351e-17	1.544938409743637e-16	1.544945379215087e-16	-6.004051129689621e-18	9.710783494053522e-16
10.90626335144043	-7.827481034603108e-14	0	0	0	0.93	0	41.67048197407529	-1.910741979630653	7.966613548203853	38.46071645336314	0.6712661347871429	-4.999792655218324	0	0	0	0	0	0	0	0	0	0	0	0	0	0	0	0	0	0	0	0	0	0	0	0	0	0	0
10.91922736167908	-7.827481034603108e-14	0	0	0	0.93	0	41.6232425160062	-1.919064514696656	7.952545877489976	38.456955082902	0.6712004864882087	-4.999792693690106	0	0	0	0	0	0	0	0	0	0	0	0	0	0	0	0	0	0	0	0	0	0	0	0	0	0	0
10.92682313919067	-7.827481034603109e-14	-1.330265153130995e-19	3.627924934666018e-29	3.846741403740952e-21	0.93	-3.017406341551323e-22	41.52729068411228	-1.935238421384968	7.935416604031331	38.38814227252953	0.6699994763796586	-4.999792867323282	3.299180775002122e-18	5.424623159975581e-16	-1.096587389218732e-29	-2.688729905621742e-22	0	1.382946956996e-16	2.413697777970893e-18	-4.75579256786004e-18	3.237099576428621e-19	-5.567951826284953e-16	-4.205096648330639e-21	0	-3.916312180407707e-21	-4.584826701565343e-25	1.293719016509725e-17	-1.609257562663333e-18	1.382946883053341e-16	1.382931320747812e-16	2.8993159428774e-21	-3.699858814036593e-19	9.430506941988829e-18	1.772209494015255e-16	1.315034710671781e-17	1.382976141785845e-16	1.382915147730291e-16	4.443138600859984e-21	3.004451591522331e-19
10.93930625915527	-7.827481034603117e-14	0	0	0	0.93	0	41.47778754636371	-1.946520237913576	7.914811428487721	38.37704737850189	0.6698058339487164	-4.999792947895457	0	0	0	0	0	0	0	0	0	0	0	0	0	0	0	0	0	0	0	0	0	0	0	0	0	0	0
10.9457893371582	-7.827481034603108e-14	0	0	0	0.93	0	41.43520307243871	-1.956462642563944	7.898287756127417	38.37067056420008	0.6696945375433615	-4.999792987561196	0	0	0	0	0	0	-4.114230227878006e-38	0	0	0	0	0	0	0	0	0	0	0	0	0	0	0	0	0	0	0	0
10.95177006721497	-7.827481034602593e-14	-2.927471615213426e-17	-1.420136350423104e-26	-1.379030252535884e-19	0.93	-4.392013625424556e-19	41.34670705646415	-1.973014523842392	7.878143709401676	38.29456136435315	0.6683661814149744	-4.999793182678991	2.712410120105494e-16	-1.290433334442683e-17	-5.555218640274539e-26	-6.490426301042838e-17	8.132616022514694e-27	0	-9.537868870624133e-19	-5.940540815492277e-17	5.389967906065672e-16	-1.941884798562895e-16	-2.721355143789946e-17	-2.473368877765325e-27	8.049038305141618e-19	-1.964310633355698e-26	-2.546500821909424e-22	1.244333423455584e-16	0	0	4.220767743736564e-18	1.228764428305707e-16	6.573425194365164e-16	-2.731913089795533e-16	1.434939960898551e-16	0	0	1.083617436501806e-17	-8.298138310219601e-18
10.96984171867371	-7.827481034603108e-14	0	0	0	0.93	0	41.30241463717785	-1.985482872435594	7.857975573989792	38.28927524418994	0.6682739212134704	-4.999793222632759	0	0	0	0	0	0	0	0	0	0	0	0	0	0	0	0	0	0	0	0	0	0	0	0	0	0	0
